<svg xmlns="http://www.w3.org/2000/svg" viewBox="0 0 64 64">
<rect y="0" fill="#25939D" width="64" height="64"/>
<path fill="#FFFFFF" d="M29.2,20.5v15.3c0,0.7-0.6,1.3-1.3,1.3l0,0v11.5c0,0.7-0.6,1.3-1.3,1.3H16.4c-0.7,0-1.3-0.6-1.3-1.3V38.4
	l5-17.4c0.1-0.3,0.3-0.5,0.6-0.5L29.2,20.5L29.2,20.5z M35.5,20.5v14h-5.1v-14H35.5z M50.9,38.4v10.2c0,0.7-0.6,1.3-1.3,1.3H39.4
	c-0.7,0-1.3-0.6-1.3-1.3V37.1c-0.7,0-1.3-0.6-1.3-1.3V20.5h8.5c0.3,0,0.5,0.2,0.6,0.5L50.9,38.4z M29.8,14.8v4.5h-7v-4.5
	c0-0.4,0.3-0.6,0.6-0.6h5.7C29.5,14.1,29.8,14.4,29.8,14.8L29.8,14.8z M43.2,14.8v4.5h-7v-4.5c0-0.4,0.3-0.6,0.6-0.6h5.7
	C42.9,14.1,43.2,14.4,43.2,14.8L43.2,14.8z"/>
</svg>
